<svg width="23" height="29" viewBox="0 0 23 29" fill="none" xmlns="http://www.w3.org/2000/svg">
<g transform="rotate(180 11.5 14.5)">
  <path d="M10.1659 28.0607C10.7517 28.6464 11.7014 28.6464 12.2872 28.0607L21.8332 18.5147C22.419 17.9289 22.419 16.9792 21.8332 16.3934C21.2474 15.8076 20.2976 15.8076 19.7118 16.3934L11.2266 24.8787L2.74128 16.3934C2.1555 15.8076 1.20575 15.8076 0.619962 16.3934C0.0341747 16.9792 0.0341747 17.9289 0.619962 18.5147L10.1659 28.0607ZM11.2266 0L9.72656 6.55669e-08L9.72656 27L11.2266 27L12.7266 27L12.7266 -6.55669e-08L11.2266 0Z" fill="white"/>
</g>
</svg>
